<?xml version="1.0" encoding="UTF-8"?>
<svg version="1.1" viewBox="0 0 208 194" xmlns="http://www.w3.org/2000/svg">
<path d="m33.942 172.01c-9.4875-9.3903-17.25-17.426-17.25-17.857 0-0.43087 0.68344-1.3506 1.5188-2.0439 1.239-1.0283 1.8573-0.95407 3.3566 0.40279 1.5293 1.384 2.0262 1.4362 2.9599 0.31131 2.5103-3.0247 3.9701-8.7154 4.6575-18.157 1.2803-17.583 4.2107-25.474 15.393-41.449 3.9126-5.5893 7.1138-10.372 7.1138-10.628s-6.4195-0.46544-14.266-0.46544c-16.901 0-19.888-1.0219-23.484-8.0359-2.1533-4.1993-2.25-5.4444-2.25-28.964 0-23.52 0.09673-24.765 2.25-28.964 4.389-8.5593-1.3876-8.0364 88.734-8.0321 77.58 0.0036 79.595 0.0521 82.775 1.9909 1.7925 1.0929 4.1534 3.4537 5.2463 5.2463 1.8508 3.0356 1.9871 5.0765 1.9871 29.759 0 24.683-0.13627 26.724-1.9871 29.759-3.9615 6.4974-6.5283 7.2329-25.255 7.2371l-16.75 4e-3v24.532c0 26.551-0.36134 28.77-5.45 33.468l-2.7078 2.5-60.131 1-1.7744 8.7687c-0.97593 4.8228-2.6122 10.223-3.6361 12-1.024 1.7772-6.4127 6.6701-11.975 10.873-9.0793 6.8606-9.9567 7.7984-8.5826 9.1724 1.866 1.866 0.98017 4.6934-1.4615 4.6647-0.97976-0.0115-9.5439-7.7039-19.031-17.094zm34.749-8.3839c1.36-1.4477 2.9901-5.4846 4.1182-10.199 2.4267-10.141 2.4107-10.302-1.0184-10.302-2.2557 0-3.3607 0.77878-4.9663 3.5-2.2293 3.7784-3.2763 4.2366-4.9826 2.1806-0.80917-0.97499-0.5801-2.6745 0.87756-6.5107 1.2576-3.3098 1.9726-7.6439 1.9726-11.958 0-8.4177 1.2182-10.292 9.3221-14.346 7.9282-3.9658 9.502-5.4111 10.253-9.416 0.79445-4.2348-0.17985-7.1893-2.6268-7.966-2.1748-0.69026-20.539 5.7798-22.949 8.0854-0.825 0.78929-4.425 7.3966-8 14.683-6.2923 12.825-9.1373 16.16-10.58 12.401-0.73416-1.9132 11.028-27.314 14.242-30.757 2.1867-2.342 2.4011-3.3348 2.1341-9.8841l-0.29677-7.2806-8.2087 12.131c-9.7355 14.387-11.712 19.931-13.297 37.298-1.0688 11.711-3.4269 19.753-6.3158 21.538-0.49169 0.30388 3.9352 5.3967 9.8374 11.317l10.731 10.765 8.7503-6.4418c4.8127-3.543 9.7633-7.52 11.001-8.8379zm9.001-34.001c0-4.675-0.3375-8.4976-0.75-8.4947-0.4125 3e-3 -2.0728 0.80862-3.6895 1.7905-2.7381 1.6629-2.9545 2.2449-3.1582 8.4947l-0.21865 6.7095h7.8164zm60.316 7.3367c4.6864-2.496 4.6189-1.7403 4.6525-52.087l0.0318-47.75h-47v101h20.066c13.337 0 20.798-0.39011 22.25-1.1633zm-26.883-12.151c-0.27738-0.72284-0.37576-6.23-0.21862-12.238 0.2556-9.7721 0.48396-10.962 2.1659-11.284 1.0341-0.19813 2.2647 0.24653 2.7347 0.98815 1.2131 1.9142 1.0921 19.593-0.15004 21.914-1.1841 2.2126-3.7843 2.5683-4.5319 0.61999zm15 0c-0.27738-0.72284-0.37576-6.2353-0.21862-12.25 0.28536-10.922 0.28888-10.936 2.7857-10.936 2.4956 0 2.5005 0.0189 2.7849 10.855 0.2875 10.954-0.39046 13.645-3.4387 13.645-0.77492 0-1.6359-0.59142-1.9133-1.3143zm-15.959-57.936c-0.31026-1.2375-0.43133-6.075-0.26905-10.75l0.29505-8.5 9.9849-0.28904c12.154-0.35185 12.515-0.0479 12.515 10.546 0 11.091-0.16275 11.243-12.016 11.243-9.4803 0-9.9722-0.1053-10.51-2.25zm-39.531 28.634 7.0572-2.6159v-55.852l-15.5 0.58413-0.26466 30.25c-0.16438 18.788 0.09812 30.25 0.69279 30.25 0.5266 0 4.1332-1.1771 8.0147-2.6159zm-14.155-28.134 0.28752-9.25-4.7875-0.0037c-2.9184-0.0023-5.9901-0.73704-7.8676-1.8819-3.2404-1.976-6.42-7.4475-6.42-11.048 0-3.9189 2.8465-9.0026 6.1898-11.055 3.2384-1.9879 4.5321-2.0263 59.637-1.7719l56.327 0.26004 3.4227 3.7353c2.919 3.1856 3.4227 4.4534 3.4227 8.6151 0 7.8648-5.6066 13.15-13.95 13.15h-4.0497v19.135l32.96-0.6346 5.5401-5.5454v-51.909l-5.5448-5.5455-77.726-0.26824c-57.079-0.19698-78.468 0.03886-80.517 0.88782-5.5659 2.3055-5.7113 3.0864-5.7113 30.669 0 15.398 0.40231 26.095 1.0251 27.259 2.2515 4.2069 5.5694 4.913 21.975 4.6765l15.5-0.22348z"/>
</svg>
