<?xml version="1.0" encoding="UTF-8"?>
<svg version="1.1" viewBox="0 0 411 409" xml:space="preserve" xmlns="http://www.w3.org/2000/svg"><path d="m135.54 315.56-0.29506-7.3121-14.988-0.5c-13.123-0.43778-15.029-0.71335-15.316-2.2143-0.48467-2.5312 2.3648-2.8921 20.305-2.5716l16 0.28587v19l-2.7049 0.31207c-2.6991 0.3114-2.7056 0.29623-3-7zm165.91 6.5634c-0.38987-0.38986-0.70885-12.559-0.70885-27.042v-26.333h6.0327l-0.26633 26.75c-0.25953 26.067-0.31845 26.757-2.3075 27.042-1.1226 0.1607-2.3601-0.0268-2.75-0.41667zm-58.709-26.876v-26.5h6v21h4c3.6 0 4 0.25 4 2.5s-0.4 2.5-4 2.5h-4v27h-6zm-89.75 19.838c-0.6875-0.27742-1.25-1.3669-1.25-2.4211 0-1.7469 0.7971-1.9167 9-1.9167h9v-9.4326c0-8.5402 0.18837-9.4924 1.991-10.065 3.3564-1.0653 4.009 0.31407 4.009 8.4744 0 4.3226 0.27314 8.571 0.60699 9.441 0.50641 1.3197 2.5776 1.5818 12.5 1.5818 11.002 0 11.893 0.14177 11.893 1.893 0 1.0412-0.71181 2.1662-1.5818 2.5-1.8846 0.72317-44.365 0.6723-46.168-0.0553zm112.02-3.5987c-2.3254-3.0087-2.1201-3.637 1.9808-6.064 8.7861-5.1997 16.074-15.176 16.929-23.175l0.32093-3-9.25-0.28753c-9.0846-0.28238-9.25-0.33156-9.25-2.75v-2.4625h25.285l-0.64427 6.1641c-0.68727 6.5754-4.1272 15.163-8.2271 20.538-1.3787 1.8076-5.0733 5.0108-8.2102 7.118-7.9365 5.3316-7.8662 5.3008-8.9344 3.9187zm-56.069-0.93899c-1.9702-1.9702-1.3962-3.2395 2.3858-5.2763 5.5431-2.9852 12.998-11.795 15.389-18.187 1.164-3.111 1.8849-6.2595 1.602-6.9967-0.37781-0.98456-2.9299-1.3403-9.6153-1.3403-8.866 0-9.0927-0.0581-8.7814-2.25 0.31111-2.1906 0.63645-2.25 12.32-2.25h12l-0.20338 5.0879c-0.43251 10.82-7.3444 22.221-17.857 29.453-4.802 3.3038-5.5205 3.4784-7.2401 1.7588zm-20.542-16.55c0.36715-5.3625 0.70691-11.1 0.75502-12.75l0.0875-3-16.25-0.27477c-15.423-0.26079-16.25-0.37534-16.25-2.25 0-1.8999 0.74878-1.9752 19.642-1.9752h19.642l-0.69139 11.25c-1.0949 17.815-1.3306 18.75-4.7261 18.75h-2.8772zm-52.658-0.75v-6.5h-12v10.062l-24.5-0.56156-0.28434-11.42c-0.21073-8.4634 0.04815-11.631 1-12.235 0.70639-0.44821 6.3222-0.82182 12.48-0.83024l11.195-0.0153 0.60958 9.5h11l0.29772-6.25c0.29476-6.1881 0.32695-6.25 3.25-6.25h2.9523v31h-6zm-17.5-9v-7h-13l-0.30402 5.888c-0.44153 8.5511-0.26844 8.7579 7.0411 8.41l6.263-0.29805zm-4.191-79.75c-0.44496-0.6875-1.034-8.2216-1.309-16.742l-0.5-15.492-3-0.51403c-2.2019-0.37729-3.089-1.1416-3.3347-2.8729-0.18406-1.2974 0.15344-2.847 0.75-3.4436 0.73646-0.73646 1.0896-12.016 1.1-35.135 8e-3 -18.728 0.39357-34.647 0.85588-35.376 2.0911-3.2983 17.852-2.524 23.236 1.1415 7.124 4.85 7.3393 5.6275 7.8924 28.504l0.5 20.68 18.426 0.27324c11.524 0.17088 18.922 0.68498 19.75 1.3724 0.89854 0.74572 1.3245 3.6876 1.3245 9.148 0 6.1868 0.39513 8.4854 1.708 9.9361 2.215 2.4476 0.71012 5.0711-3.3149 5.7791l-2.8931 0.50884-0.27471 16.228-0.27471 16.228-2.5485 0.63963c-1.4017 0.3518-2.9456 0.24256-3.4309-0.24276-0.48531-0.48531-1.0149-4.7049-1.1768-9.3768l-0.29439-8.4944-46.5-0.53686v8.3184c0 5.1366-0.45901 8.7774-1.2 9.5184-1.5624 1.5624-4.4645 1.536-5.491-0.05zm53.504-29-0.31336-3.25-46.5-0.53686v7.0369h47.127zm4.6866-16.25v-5l-18.426-0.27324c-11.524-0.17089-18.922-0.68498-19.75-1.3724-1.0258-0.85131-1.3245-6.0557-1.3245-23.077v-21.978l-3.4-3.4c-2.9778-2.9778-4.0333-3.4-8.5-3.4h-5.1v64.031l56.5-0.53114zm13.553 45.064c-0.88467-1.066-0.90716-1.968-0.0873-3.5 0.94111-1.7585 2.0613-2.0639 7.5694-2.0639h6.4648v-62h-22.918c-12.605 0-23.63-0.27315-24.5-0.60699-2.3502-0.90185-2.3502-22.884 0-23.786 0.86998-0.33385 24.18-0.60699 51.8-0.60699 37.725 0 50.517 0.29853 51.418 1.2 1.6403 1.6403 1.6403 20.96 0 22.6-0.86467 0.86466-7.7111 1.2-24.5 1.2h-23.3v62h6.4503c7.0308 0 9.3521 1.6322 7.4297 5.2242-0.85265 1.5932-2.6826 1.7758-17.793 1.7758-13.418 0-17.085-0.292-18.034-1.4361zm63.947-80.064v-4.5h-92v9h92zm-16.522 80.25c-0.25252-0.6875-0.5759-8.225-0.71861-16.75l-0.25949-15.5-3.5-0.5c-2.6807-0.38296-3.5748-1.0271-3.8198-2.7517-0.17587-1.2384 0.38663-2.9581 1.25-3.8214 1.1555-1.1555 1.5698-3.6092 1.5698-9.2983 0-4.6778 0.47369-8.2023 1.2-8.9286 0.8459-0.8459 6.6-1.2 19.5-1.2h18.3v-18.532c0-19.76 0.67097-23.344 5.2977-28.299 3.531-3.7818 7.4456-5.3034 15.14-5.8854 12.51-0.9461 11.562-3.9067 11.562 36.129 0 29.804 0.20489 34.512 1.5506 35.629 0.86285 0.7161 1.4172 2.4336 1.25 3.8724-0.24522 2.1095-0.89901 2.6433-3.5506 2.899l-3.25 0.31335v15.002c0 15.381-0.70921 18.871-3.8352 18.871-3.3263 0-4.1648-2.158-4.1648-10.718v-8.3184l-46.5 0.53686-0.29571 7.9526c-0.16264 4.3739-0.78025 8.5364-1.3724 9.25-1.3722 1.6534-4.7529 1.6833-5.3537 0.0474zm53.335-29-0.31336-3.25h-46l-0.62672 6.5h47.253zm5.1866-42.87v-32.12l-6.1546 0.44518c-5.3357 0.38595-6.466 0.83438-8.495 3.3702-2.2888 2.8605-2.3406 3.3949-2.3454 24.241-3e-3 12.771-0.41994 22.091-1.0402 23.25-0.96759 1.808-2.2735 1.9343-20 1.9343h-18.965v4.8333c0 2.6583 0.3 5.1333 0.66666 5.5 0.36667 0.36667 13.192 0.66667 28.5 0.66667h27.833z"/></svg>
