<?xml version="1.0" encoding="UTF-8"?>
<svg version="1.1" viewBox="0 0 411 409" xml:space="preserve" xmlns="http://www.w3.org/2000/svg"><path d="m172.25 321.59c-12.834-2.2927-16.346-12.495-6.0338-17.528 7.9816-3.8953 21.734-2.8886 26.982 1.9752 4.8616 4.5055 2.6522 11.593-4.4482 14.27-3.8216 1.4405-12.041 2.0796-16.5 1.283zm13.5-5.3986c2.9466-1.0048 3.5-1.6632 3.5-4.164 0-3.9938-3.1856-5.496-11.694-5.5148-5.5161-0.0122-7.1552 0.38175-9.3134 2.2382-1.8692 1.6078-2.415 2.785-1.9061 4.1112 1.5699 4.0911 11.957 5.8724 19.414 3.3294zm58.607 4.7246c-0.33384-0.86998-0.60699-13.02-0.60699-27v-25.418h5.93l0.56996 20.5 4 0.5c3.163 0.39537 4.0652 0.95816 4.3116 2.6895 0.27391 1.9245-0.21024 2.2271-4 2.5l-4.3116 0.31051-0.27822 13.75c-0.27745 13.712-0.28477 13.75-2.643 13.75-1.3006 0-2.6379-0.7118-2.9718-1.5818zm58.06 0.91512c-0.36667-0.36666-0.66667-12.517-0.66667-27v-26.333h6v54h-2.3333c-1.2833 0-2.6333-0.3-3-0.66667zm-204.29-7.7854c-1.1306-2.9464 0.76461-3.5479 11.179-3.5479h10.441v-11h-8.5c-8.4 0-8.5-0.0294-8.5-2.5 0-2.1905 0.43334-2.5 3.5-2.5h3.5v-17h-3.5696c-3.1298 0-3.5302-0.27721-3.25-2.25 0.31891-2.2455 0.35868-2.25 19.82-2.25 19.291 0 19.503 0.0234 19.811 2.186 0.26721 1.8773-0.22708 2.2303-3.5 2.5l-3.8112 0.31401-0.58088 16.5h4.0404c3.6431 0 4.0404 0.24583 4.0404 2.5 0 2.4706-0.1 2.5-8.5 2.5h-8.5v11h21v5h-24.031c-20.087 0-24.123-0.23837-24.589-1.4521zm30.41-27.798-0.29044-8.25h-12l-0.29912 6.9008c-0.16452 3.7954-0.0661 7.5079 0.21861 8.25 0.35584 0.9273 2.4165 1.3492 6.5896 1.3492h6.0718zm136.64 23.044c-0.4015-1.265-0.25618-2.3537 0.34075-2.5527 3.2597-1.0866 10.803-7.1188 13.784-11.023 3.0811-4.0352 6.4406-12.329 6.4406-15.9 0-0.99948-2.3154-1.3185-9.5696-1.3185-9.352 0-9.5623-0.0512-9.25-2.25 0.30923-2.1773 0.71992-2.2591 12.717-2.532l12.398-0.28197-0.62877 6.7334c-1.0558 11.307-7.6022 21.872-17.479 28.21-5.7515 3.6907-7.8037 3.9051-8.7528 0.91457zm-47.165-0.22233c-7.7264-3.4892-9.4691-13.834-3.3596-19.944 2.8528-2.8528 3.6922-3.1284 9.5286-3.1284 5.3773 0 6.808 0.38311 8.9518 2.397 5.7337 5.3865 5.4818 14.922-0.50676 19.186-3.8457 2.7384-10.374 3.4036-14.614 1.4891zm11.276-6.0264c2.9997-2.9997 3.1313-6.4153 0.38196-9.9106-2.597-3.3015-7.9498-3.6125-10.927-0.63486s-2.6667 8.3304 0.63486 10.927c3.4953 2.7494 6.9109 2.6177 9.9106-0.38197zm-39.545-18.479v-16.066h6v13h3.5c3.0667 0 3.5 0.30952 3.5 2.5 0 2.1842-0.43638 2.5-3.4543 2.5h-3.4543l-0.29569 6.75c-0.28632 6.5362-0.38281 6.76-3.0457 7.0664l-2.75 0.31642zm-34.8 13.734c-1.4395-1.4395-1.5854-3.8-0.23479-3.8 1.6047 0 8.0389-6.1072 9.5859-9.0988 0.7969-1.541 1.4489-4.1742 1.4489-5.8516 0-3.0299-0.0357-3.0497-5.5-3.0497-5.2159 0-5.5-0.13054-5.5-2.5275v-2.5274l14.25 0.27745c13.92 0.27104 14.257 0.32954 14.57 2.5275 0.29756 2.0951-0.0523 2.25-5.0833 2.25-2.9716 0-5.6582 0.25535-5.9703 0.56744s-0.1211 2.2246 0.42442 4.25c1.094 4.062 6.0449 9.8827 9.579 11.262 1.9862 0.77523 2.1122 1.1374 1.0094 2.9031-1.8897 3.0259-4.0505 2.4777-9.482-2.4056l-4.9195-4.423-2.7943 3.502c-2.4436 3.0625-8.0435 7.3296-9.6331 7.3404-0.3025 2e-3 -1.09-0.53626-1.75-1.1963zm53.18-18.252c-1.0146-2.6439 0.67186-3.5479 6.6186-3.5479h5.8806l0.31037-3.75c0.26903-3.2506 0.64332-3.75 2.8104-3.75 2.0952 0 2.581 0.56667 3 3.5l0.5 3.5 6.25 0.29772c5.8866 0.28041 6.25 0.44029 6.25 2.75v2.4523h-15.531c-12.656 0-15.635-0.26888-16.089-1.4521zm-59.022-67.455c-7.6562-1.939-14.358-9.3884-14.358-15.959 0-1.615-0.9842-2.6465-3.5469-3.7173l-3.5469-1.482 0.59372-12.434 9.5-0.60958v-6.031c0-7.7092-1.8338-43.715-2.5776-50.609-0.50841-4.7129-0.81118-5.25-2.9592-5.25-3.2267 0-4.4632-2.6993-4.4632-9.7431 0-6.5381 1.2829-8.9592 5-9.4361 2.0196-0.25911 2.6628-1.0894 3.3475-4.3207 1.5907-7.5082-0.7456-6.9718 31.64-7.2653 19.052-0.17269 29.705 0.09523 30.515 0.76745 0.68441 0.56802 1.5418 3.2749 1.9054 6.0153l0.66096 4.9826h4.4202c4.3329 0 4.4323-0.07409 5.0292-3.75 0.33494-2.0625 1.0207-4.7625 1.5239-6l0.91489-2.25h29.462c22.472 0 29.654 0.29659 30.271 1.25 0.44495 0.6875 1.2607 3.275 1.8127 5.75 0.82526 3.7001 1.4474 4.5615 3.5 4.8458 4.2956 0.59507 4.9963 1.9382 4.9963 9.5766 0 7.6468-0.9303 9.5776-4.6147 9.5776-2.0269 0-2.266 0.61471-2.8203 7.25-0.85079 10.185-2.5637 43.212-2.5644 49.445l-5.8e-4 5.1952 9.5 0.60958 0.29949 6.3182c0.29607 6.2461 0.26422 6.3315-2.7897 7.4842-2.0442 0.77161-3.2538 2.0171-3.5759 3.6818-1.0827 5.5971-5.0972 11.503-9.5264 14.016-4.2954 2.4364-4.9161 2.5-24.407 2.5-19.992 0-20.002-1e-3 -24.654-2.7359-4.3448-2.5541-8.846-8.9553-8.846-12.58 0-0.67844-1.4416-1.1843-3.375-1.1843-2.873 0-3.4622 0.409-3.9612 2.75-0.9996 4.6894-4.4007 9.0718-8.8746 11.435-3.9411 2.0818-5.7502 2.2835-22.289 2.4845-9.9 0.1203-19.414-0.13933-21.142-0.57697zm38.924-6.4545c4.4873-1.8993 6.8274-4.8518 8.233-10.387l1.2062-4.7506h15.648l1.2319 4.8291c2.6161 10.255 6.0284 11.671 28.117 11.669 14.001-1e-3 17.35-0.2913 20.211-1.75 4.8021-2.4487 7.1487-6.1008 7.9135-12.317 0.56332-4.5777 1.0052-5.4254 3.0834-5.9153 1.3342-0.3145 2.6092-1.1219 2.8333-1.7942 0.31854-0.95564-15.233-1.2224-71.259-1.2224-56.886 0-71.582 0.2578-71.255 1.25 0.22641 0.6875 1.5014 1.4079 2.8333 1.6008 3.1696 0.45916 3.8879 1.7453 3.9064 6.9948 0.0183 5.195 2.9063 9.7638 7.4116 11.725 4.3879 1.9101 35.408 1.9625 39.886 0.0674zm4.0506-28.388c0.24792-0.4125 0.7791-8.2875 1.1804-17.5l0.72961-16.75h-51.421l0.71294 16.75c0.39212 9.2125 0.9087 17.088 1.148 17.5s10.957 0.75 23.817 0.75 23.585-0.3375 23.833-0.75zm-31.355-11c-5.5008-6.9781 2.9447-19.992 11.569-17.828 1.7341 0.43524 3.0897 1.856 4.1172 4.3152 4.2984 10.288-9.1181 21.845-15.686 13.512zm9.4659-5.4725c1.8076-2.5807 2.0207-5.3727 0.48267-6.3232-1.6026-0.99043-5.926 3.5476-5.926 6.2201 0 3.0631 3.3259 3.1261 5.4433 0.10318zm41.219-0.02749c-0.35849-9.4875-0.95009-23.46-1.3146-31.05l-0.66286-13.8-8.1852 0.59961-0.62812 12c-0.34547 6.6-0.96538 20.438-1.3776 30.75l-0.74945 18.75h13.57zm54.67 16.5c0.24792-0.4125 0.7791-8.2875 1.1804-17.5l0.72961-16.75h-51.343l0.61035 15.25c0.3357 8.3875 0.81686 16.262 1.0692 17.5l0.45889 2.25h23.422c12.882 0 23.625-0.3375 23.873-0.75zm-29.978-9.7141c-6.8874-4.8241-0.37836-19.536 8.6434-19.536 1.1536 0 3.2009 1.1907 4.5497 2.646 7.4567 8.046-4.311 23.111-13.193 16.89zm8.0707-6.4534c1.9809-2.1888 1.769-6.5825-0.31745-6.5825-0.76564 0-2.2898 1.2024-3.387 2.6719-3.4042 4.5595-0.0691 8.0802 3.7044 3.9106zm-49.215-33.832c0.22174-5.3625 0.23862-10.088 0.0375-10.5-0.20111-0.4125-12.55-0.75-27.443-0.75h-27.077l0.63593 4.6396c0.34976 2.5518 0.63592 7.2768 0.63592 10.5v5.8604h52.807zm74.143 2.0991c0.3557-4.208 0.64673-8.933 0.64673-10.5v-2.8491h-54v21h52.707zm-66.853-22.849v-3h-33.986c-31.991 0-34.007 0.10617-34.335 1.8084-0.92573 4.807-1.4778 4.7358 34.545 4.4549l33.776-0.26333zm74 0v-3l-67.5-0.5266v7.0532l67.5-0.5266zm-81.5-10.918c0-4.6294 0.27567-4.5818-26.5-4.5818-22.135 0-25.362 0.19711-25.893 1.5818-1.7194 4.4807-2.0854 4.4182 25.893 4.4182 22.21 0 26.5-0.22961 26.5-1.4182zm73.816-1.3318-0.31642-2.75-25.75-0.26688c-14.162-0.14679-25.756 0.07821-25.764 0.5-8e-3 0.42178-0.285 1.7794-0.61663 3.0169l-0.60298 2.25h53.366z"/></svg>
