<?xml version="1.0" encoding="UTF-8"?>
<svg version="1.1" viewBox="0 0 208 194" xml:space="preserve" xmlns="http://www.w3.org/2000/svg"><path d="m64.899 140.8c-1.2458-0.72559-1.3458-3.0399-1.3458-31.123v-30.339h-19.111c-12.004 0-20.021-0.31702-21.557-0.85242-5.2777-1.8398-6.1336-9.3606-1.3955-12.261 2.4037-1.4715 4.2269-1.5002 82.998-1.3092l80.54 0.19538 2.0169 2.017c2.7777 2.7779 2.7782 7.03 7.6e-4 9.8088l-2.0157 2.017-40.727 0.45623v30.314c0 36.026 0.70314 33.824-9.2108 28.839l-6.1702-3.1023-12.305 6.1867-12.631-6.3506-12.776 6.3363-12.276-6.1724-6.1353 3.0848c-3.3744 1.6966-6.2295 3.0742-6.3446 3.0614-0.11513-0.0128-0.81496-0.37613-1.5552-0.80726zm32.672-9.2575 6.2983-3.1667 12.776 6.3363 12.281-6.1749 9.2236 4.6561v-53.855h-68.445v53.855l9.2251-4.6568 5.9619 3.0479c3.279 1.6764 6.056 3.0652 6.1712 3.0864 0.11513 0.0211 3.0436-1.3866 6.5076-3.1283zm-14.626-19.277c-1.2426-1.2426-1.1859-3.3072 0.12061-4.3915 0.74518-0.61844 6.9982-0.81581 21.258-0.67095 18.27 0.1856 20.283 0.3339 21.05 1.551 0.61861 0.98121 0.6186 1.7104-1e-5 2.6917-0.76763 1.2176-2.7853 1.3653-21.171 1.5503-15.161 0.15257-20.56-0.033-21.258-0.73059zm0.25205-12.428c-1.0416-0.76163-1.279-1.5718-0.90138-3.0762l0.51257-2.0423h21.052c18.487 0 21.109 0.1482 21.519 1.2165 0.69914 1.8219 0.5837 2.402-0.74169 3.7274-1.0348 1.0348-3.9983 1.2085-20.617 1.2085-15.04 0-19.727-0.23272-20.823-1.0339z" stroke-width=".76905"/></svg>
